<!-- Generated by IcoMoon.io -->
<svg version="1.1" xmlns="http://www.w3.org/2000/svg" width="768" height="768" viewBox="0 0 768 768">
<title></title>
<g id="icomoon-ignore">
</g>
<path fill="#000" d="M323.936 701.28c-39.584 0.128-79.136 0.256-118.816-0.128-55.136-0.608-90.528-33.024-97.28-87.84-14.176-115.552-28.32-230.848-42.752-346.368-7.072-57.792 20.64-89.632 79.584-90.24h0.056c2.608-0.015 5.203-0.085 7.368-0.192l-0.273 0.015c2.017-0.138 4.052-0.208 6.104-0.208 3.017 0 6 0.151 8.569 0.417 33.6 4.416 53.344-4.736 73.696-38.048 68.672-112 235.52-103.2 296.256 13.28 10.016 19.136 20.352 26.816 41.28 25.056 16.16-1.6 32.576-1.056 49.024-0.48l-5.702-0.167c1.919 0.070 3.839 0.14 11.206 0.359 48.32 2.048 76.64 32.736 71.040 81.056-13.856 121.472-28.608 242.912-44.48 364.352-6.208 47.744-43.968 78.4-94.080 79.008-40.032 0.384-80.224 0.256-120.544 0.128-20.224-0.064-40.48-0.128-60.736-0.128-19.84 0-39.68 0.064-59.52 0.128zM386.112 350.944c67.2-0.608 122.624-55.424 122.624-122.048s-54.24-121.44-122.048-122.912c-68.384-1.472-126.144 54.24-126.464 122.336-0.288 67.776 56.32 122.912 125.888 122.624z"></path>
<path fill="#000" d="M310.656 177.024c10.88-0.608 97.28 49.824 100.8 58.048 3.232 7.36 2.080 14.464-4.128 19.776-8.544 7.36-19.744 12.96-30.080 7.936-32.704-15.328-53.344-45.088-77.216-70.432-8.256-8.256 2.944-13.856 10.624-15.36z"></path>
</svg>
